<?xml version="1.0" encoding="UTF-8" standalone="no"?>
<!-- Created with Inkscape (http://www.inkscape.org/) -->

<svg
   width="400"
   height="400"
   viewBox="0 0 105.83333 105.83334"
   version="1.1"
   id="svg5"
   inkscape:version="1.1.1 (3bf5ae0d25, 2021-09-20)"
   sodipodi:docname="SB-icon-400x400-dark.svg"
   xmlns:inkscape="http://www.inkscape.org/namespaces/inkscape"
   xmlns:sodipodi="http://sodipodi.sourceforge.net/DTD/sodipodi-0.dtd"
   xmlns="http://www.w3.org/2000/svg"
   xmlns:svg="http://www.w3.org/2000/svg">
  <sodipodi:namedview
     id="namedview7"
     pagecolor="#505050"
     bordercolor="#ffffff"
     borderopacity="1"
     inkscape:pageshadow="0"
     inkscape:pageopacity="0"
     inkscape:pagecheckerboard="1"
     inkscape:document-units="mm"
     showgrid="false"
     units="px"
     inkscape:lockguides="true"
     showguides="false"
     inkscape:zoom="1.8116734"
     inkscape:cx="152.62132"
     inkscape:cy="207.81891"
     inkscape:window-width="1920"
     inkscape:window-height="1017"
     inkscape:window-x="-8"
     inkscape:window-y="139"
     inkscape:window-maximized="1"
     inkscape:current-layer="layer3" />
  <defs
     id="defs2">
    <rect
       x="39.742262"
       y="44.158069"
       width="203.12712"
       height="184.35994"
       id="rect46191" />
    <rect
       x="23.734962"
       y="20.423107"
       width="349.95269"
       height="349.40072"
       id="rect35680" />
  </defs>
  <g
     inkscape:label="B template"
     inkscape:groupmode="layer"
     id="layer1"
     style="display:inline">
    <g
       aria-label="B"
       transform="matrix(4.665815,0,0,3.5237196,-126.76432,-95.97566)"
       id="text35678"
       style="font-size:40px;line-height:1.25;white-space:pre;shape-inside:url(#rect35680);stroke-width:0.0652526">
      <path
         d="m 49.574219,47.971728 c 0,1.445313 -0.273438,2.721354 -0.820313,3.828125 -0.546875,1.106771 -1.658161,2.01823 -2.58264,2.734375 -1.09375,0.859375 -1.922568,1.471355 -3.237672,1.835938 -1.302083,0.364583 -2.96224,0.546875 -4.980469,0.546875 h -10.3125 V 27.83501 h 8.613281 c 2.122396,0 3.710938,0.07813 4.765625,0.234375 1.054687,0.15625 3.847946,1.062013 4.811488,1.556804 1.067708,0.559896 1.151491,0.704551 1.635602,1.587727 0.479437,0.874648 0.910461,1.920573 0.910461,3.144531 0,1.380209 -0.195059,3.470403 -0.898184,4.446965 -0.703125,0.963542 -1.608489,1.41241 -6.412089,1.41241 v 0 c 4.324943,0.887903 5.675378,2.006023 6.808191,3.334148 1.132813,1.315105 1.699219,2.401529 1.699219,4.419758 z M 44.127285,33.296145 C 43.902257,32.806622 43.045793,32.21652 42.52496,31.917041 41.912981,31.565478 40.231771,31.350635 39.359375,31.27251 38.486979,31.181364 37.40625,31.135791 36.117187,31.135791 h -4.609375 v 7.901087 c 3.287777,-0.366592 7.921926,-0.714579 7.921926,-0.714579 3.505036,-0.423143 4.263764,-0.756291 5.253198,-1.746359 0.342998,-0.579384 0.932342,-1.661815 -0.555651,-3.279795 z m 1.486098,14.831833 c 0,-1.171875 -0.238383,-2.102864 -0.589946,-2.792968 -0.351562,-0.690105 -0.989583,-1.276042 -1.914062,-1.757813 -0.625,-0.325521 -1.386719,-0.533854 -2.285156,-0.625 -0.885417,-0.104167 -1.966146,-0.15625 -3.242188,-0.15625 H 31.507812 V 53.61626 H 36.625 c 1.692708,0 3.079427,-0.04319 4.160156,-0.212461 1.080729,-0.182291 1.966146,-0.342029 2.65625,-0.810779 0.729167,-0.507812 1.513427,-1.294469 1.851969,-1.94551 0.338542,-0.651042 0.320008,-1.490886 0.320008,-2.519532 z"
         id="path48176"
         sodipodi:nodetypes="ssccsccsscssccccscccscccccssccsccsccss" />
    </g>
  </g>
  <g
     inkscape:groupmode="layer"
     id="layer3"
     inkscape:label="S template"
     style="display:inline"
     sodipodi:insensitive="true">
    <g
       aria-label="S"
       transform="matrix(4.5699694,0,0,3.3999683,-191.42817,-171.5739)"
       id="text46189"
       style="font-size:40px;line-height:1.25;white-space:pre;shape-inside:url(#rect46191);fill:#ff8300;fill-opacity:1;stroke-width:0.0671224">
      <path
         d="m 64.78125,72.350635 c 0,1.132812 -0.266927,2.252604 -0.800781,3.359375 -0.520833,1.106771 -1.256511,2.044271 -2.207032,2.8125 -1.041667,0.833333 -1.971499,1.441421 -3.524514,1.953125 -3.761006,1.429511 -7.350111,0.898627 -10.791892,0.117187 -1.666667,-0.390625 -3.014356,-1.098916 -4.394597,-2.554415 -0.997694,-2.768672 0.878244,-3.993697 1.647599,-3.76989 0.672424,0.278961 1.093353,1.910242 3.020436,2.574305 3.566143,1.058797 7.297344,1.494994 11.015625,-0.351562 1.341145,-0.898438 2.011718,-2.096355 2.011718,-3.59375 0,-1.289063 -0.31901,-2.239584 -0.957031,-2.851563 -0.625,-0.611979 -1.582031,-1.08724 -2.871094,-1.425781 -0.976562,-0.260417 -2.03776,-0.47526 -3.183593,-0.644531 -1.132813,-0.169271 -2.33724,-0.384115 -3.613282,-0.644532 -2.578125,-0.546875 -4.492187,-1.477864 -5.742187,-2.792968 -1.236979,-1.328125 -1.855469,-3.053386 -1.855469,-5.175782 0,-2.434895 0.133844,-5.415034 1.839606,-7.050422 1.290317,-1.390682 5.9143,-1.26989 9.078363,-1.26989 2.044271,0 6.342484,0.697498 8.18158,2.17525 3.080401,2.940749 1.538192,7.635599 -1.494492,5.457218 -0.589585,-2.462439 -1.698602,-2.500042 -3.79851,-3.562399 -1.59063,0.02212 -9.98042,-2.819787 -10.00681,3.793237 -0.173526,3.226073 2.41297,3.58468 4.174367,4.004049 0.833333,0.182292 2.900864,0.5788 4.481447,1.007698 3.258953,0.53288 6.033815,1.016435 8.149918,3.570255 1.188782,1.330573 1.640625,2.779949 1.640625,4.863282 z"
         id="path50690"
         sodipodi:nodetypes="sccccccccscccccscscccccccss"
         style="fill:#ff8300;fill-opacity:1" />
    </g>
  </g>
</svg>
